/* XPM */
static const char * Agender16x16_xpm[] = {
"16 16 69 1",
" 	c None",
".	c #000000",
"+	c #E1C822",
"@	c #E3CD35",
"#	c #E6D248",
"$	c #E9D75B",
"%	c #EBDB6E",
"&	c #EEE082",
"*	c #F0E595",
"=	c #DEC30F",
"-	c #F9F3CE",
";	c #E0C823",
">	c #E0CC46",
",	c #E8D55B",
"'	c #E8D86D",
")	c #646464",
"!	c #F5EDBA",
"~	c #F9F7DE",
"{	c #F8F3D0",
"]	c #DFC310",
"^	c #E0C822",
"/	c #E4CD35",
"(	c #E9D75C",
"_	c #F3E9A8",
":	c #F8F3D2",
"<	c #F5EDB8",
"[	c #E1C922",
"}	c #E3CD36",
"|	c #EBDB6F",
"1	c #F5EEBC",
"2	c #F0E597",
"3	c #E4CD36",
"4	c #E6D149",
"5	c #E8D65C",
"6	c #EDE082",
"7	c #FBF7E1",
"8	c #FAF6D9",
"9	c #F1E69A",
"0	c #ECDD76",
"a	c #E6D249",
"b	c #E9D75D",
"c	c #F0E596",
"d	c #ECDE7A",
"e	c #E3CD3A",
"f	c #ECDB6F",
"g	c #EEE083",
"h	c #F4E9A9",
"i	c #F8F3CF",
"j	c #7E5F0B",
"k	c #F0E496",
"l	c #F6EEBC",
"m	c #FBF8E2",
"n	c #FCFF00",
"o	c #F3EAA8",
"p	c #F9F3CF",
"q	c #FBF7E2",
"r	c #FBF9E6",
"s	c #B0B0B0",
"t	c #FFFFFF",
"u	c #FBF8E3",
"v	c #FBF9ED",
"w	c #F9F4D3",
"x	c #F4EBAF",
"y	c #EFE28C",
"z	c #F9F4D6",
"A	c #F4EBB2",
"B	c #EFE38F",
"C	c #EADA6B",
"D	c #E6D24B",
"    ........    ",
"  ...+@#$%&*..  ",
" .==.........-. ",
".==;.>,'..)!.~{.",
".]^/.(%&._)..:<.",
".[}#.|&*.....12.",
".345|6._.-78.90.",
".ab|&c.......de.",
" .fgch.i.jjjjjjj",
" .gk.l-m.jnnnnnn",
"  .o.pqr.jsttttt",
"  .l.....jst..tt",
"   .uvwxyjstt.tt",
"    .zABCjst...t",
"     .C|Djsttttt",
"      ...jssssss"};
