/* XPM */
static const char * agender_xpm[] = {
"42 42 479 2",
"  	c None",
". 	c #000000",
"+ 	c #2C2902",
"@ 	c #A39A07",
"# 	c #373402",
"$ 	c #504C03",
"% 	c #CFC309",
"& 	c #D0C50B",
"* 	c #D0C60C",
"= 	c #D4C910",
"- 	c #D6CC14",
"; 	c #D9D018",
"> 	c #DAD119",
", 	c #DCD21A",
"' 	c #DCD31A",
") 	c #DDD41A",
"! 	c #D6CE19",
"~ 	c #D0C818",
"{ 	c #D0C512",
"] 	c #100F01",
"^ 	c #544F03",
"/ 	c #7A7305",
"( 	c #D0C40A",
"_ 	c #D2C60C",
": 	c #D2C60E",
"< 	c #D7CE18",
"[ 	c #D9D01C",
"} 	c #DCD31E",
"| 	c #DDD51F",
"1 	c #DED620",
"2 	c #DED51F",
"3 	c #DFD71F",
"4 	c #DED520",
"5 	c #BFB408",
"6 	c #050400",
"7 	c #0C0C00",
"8 	c #0D0C00",
"9 	c #0D0C01",
"0 	c #0D0D01",
"a 	c #0C0B01",
"b 	c #0D0D02",
"c 	c #0E0D02",
"d 	c #0E0D03",
"e 	c #DAD124",
"f 	c #D9D01B",
"g 	c #DED732",
"h 	c #DCD425",
"i 	c #D9CF1A",
"j 	c #E1DA3A",
"k 	c #DDD52C",
"l 	c #DAD21F",
"m 	c #8D860D",
"n 	c #544F04",
"o 	c #2D2B03",
"p 	c #756F07",
"q 	c #767009",
"r 	c #77720C",
"s 	c #79740F",
"t 	c #7A7512",
"u 	c #3D3A0B",
"v 	c #2C2C11",
"w 	c #817E32",
"x 	c #838133",
"y 	c #575521",
"z 	c #E2DB3F",
"A 	c #DCD431",
"B 	c #DAD125",
"C 	c #D4CA14",
"D 	c #545004",
"E 	c #7B7508",
"F 	c #D3C70E",
"G 	c #D6CC15",
"H 	c #D8CF1B",
"I 	c #DBD223",
"J 	c #DED72C",
"K 	c #A6A127",
"L 	c #1E1D0A",
"M 	c #101005",
"N 	c #0E0E05",
"O 	c #B9B647",
"P 	c #EDE85A",
"Q 	c #E3DE40",
"R 	c #DDD634",
"S 	c #D8D029",
"T 	c #555004",
"U 	c #7C7708",
"V 	c #D5CA11",
"W 	c #D5CB13",
"X 	c #D7CF1B",
"Y 	c #DBD324",
"Z 	c #DFD82D",
"` 	c #E0DA35",
" .	c #A8A32D",
"..	c #383613",
"+.	c #E8E254",
"@.	c #414019",
"#.	c #010101",
"$.	c #53511E",
"%.	c #E4DD40",
"&.	c #E1D934",
"*.	c #D7D02C",
"=.	c #D2CA18",
"-.	c #D4C810",
";.	c #D1C50B",
">.	c #555105",
",.	c #7E770A",
"'.	c #D8CF19",
").	c #DCD426",
"!.	c #DED62D",
"~.	c #E1DA34",
"{.	c #E3DD3D",
"].	c #AAA533",
"^.	c #383715",
"/.	c #ECE65A",
"(.	c #EDE85C",
"_.	c #9D9A3D",
":.	c #040401",
"<.	c #E3DD3E",
"[.	c #DFD936",
"}.	c #DDD52B",
"|.	c #D2CA22",
"1.	c #D0C719",
"2.	c #565105",
"3.	c #7D770B",
"4.	c #D7CE1A",
"5.	c #DAD222",
"6.	c #E0D832",
"7.	c #E3DD3C",
"8.	c #E6E044",
"9.	c #ABA636",
"0.	c #0F0E05",
"a.	c #5E5C24",
"b.	c #2C2B10",
"c.	c #E3DC3D",
"d.	c #E0D833",
"e.	c #DCD52B",
"f.	c #D7CF22",
"g.	c #D1C60C",
"h.	c #D3C70D",
"i.	c #565106",
"j.	c #7F790E",
"k.	c #D9D121",
"l.	c #DED629",
"m.	c #E0DA32",
"n.	c #E2DC3A",
"o.	c #E4DE42",
"p.	c #E7E149",
"q.	c #ACA83B",
"r.	c #E0D93B",
"s.	c #DFD934",
"t.	c #DCD42A",
"u.	c #D8CF20",
"v.	c #D2C70D",
"w.	c #D4C80E",
"x.	c #B3AA0D",
"y.	c #C4BB10",
"z.	c #B7AF13",
"A.	c #B9B119",
"B.	c #DCD428",
"C.	c #E0D831",
"D.	c #E2DB39",
"E.	c #E5DE41",
"F.	c #E7E148",
"G.	c #E9E34E",
"H.	c #ADA93E",
"I.	c #DED738",
"J.	c #E0D931",
"K.	c #DAD227",
"L.	c #D6CE1F",
"M.	c #CEC30A",
"N.	c #D3C80E",
"O.	c #D4C90F",
"P.	c #D6CC16",
"Q.	c #D9D01D",
"R.	c #DFD72D",
"S.	c #E0D936",
"T.	c #E5E045",
"U.	c #E8E24A",
"V.	c #E9E34F",
"W.	c #AEA93F",
"X.	c #161509",
"Y.	c #898634",
"Z.	c #878431",
"`.	c #878430",
" +	c #87842F",
".+	c #87842E",
"++	c #86832C",
"@+	c #58561C",
"#+	c #DFD834",
"$+	c #DFD62F",
"%+	c #DAD126",
"&+	c #D5CB1E",
"*+	c #CFC30A",
"=+	c #D5CA10",
"-+	c #DAD223",
";+	c #DDD52A",
">+	c #989426",
",+	c #8E8A28",
"'+	c #8F8B2D",
")+	c #DAD548",
"!+	c #EBE553",
"~+	c #AEAA41",
"{+	c #393716",
"]+	c #EBE658",
"^+	c #EAE454",
"/+	c #E9E452",
"(+	c #E8E24D",
"_+	c #E6E046",
":+	c #D9CF23",
"<+	c #D3CA1B",
"[+	c #D6CD15",
"}+	c #D8CE17",
"|+	c #DED730",
"1+	c #E1DA38",
"2+	c #1E1D08",
"3+	c #83802D",
"4+	c #EAE455",
"5+	c #72702B",
"6+	c #26240E",
"7+	c #EAE456",
"8+	c #EAE452",
"9+	c #E8E34F",
"0+	c #E7E14C",
"a+	c #97932D",
"b+	c #DFD62E",
"c+	c #DBD327",
"d+	c #D6CC1F",
"e+	c #D2C817",
"f+	c #CEC209",
"g+	c #D7CC12",
"h+	c #DCD324",
"i+	c #DFD62C",
"j+	c #E2DC3B",
"k+	c #DCD429",
"l+	c #D9D023",
"m+	c #D3CB1C",
"n+	c #CFC514",
"o+	c #D5CB11",
"p+	c #D8CE15",
"q+	c #D9D01A",
"r+	c #DAD221",
"s+	c #DED62A",
"t+	c #DFD832",
"u+	c #E1DB39",
"v+	c #E4DD3F",
"w+	c #DBD224",
"x+	c #D7CE1E",
"y+	c #D1C717",
"z+	c #CEC310",
"A+	c #D2C910",
"B+	c #D7CE14",
"C+	c #DBD21E",
"D+	c #DCD327",
"E+	c #DFD72F",
"F+	c #E0DA37",
"G+	c #E3DB3D",
"H+	c #1E1D09",
"I+	c #D8D01F",
"J+	c #D5CC1A",
"K+	c #D1C614",
"L+	c #CDC20C",
"M+	c #D6CB12",
"N+	c #D8CF17",
"O+	c #DBD21C",
"P+	c #DCD421",
"Q+	c #DFD62B",
"R+	c #E0D834",
"S+	c #E2DB3B",
"T+	c #E4DE43",
"U+	c #83802F",
"V+	c #EAE557",
"W+	c #73702B",
"X+	c #25240D",
"Y+	c #7E5F0B",
"Z+	c #D1C70D",
"`+	c #D7CC15",
" @	c #DCD320",
".@	c #DFD628",
"+@	c #E0D830",
"@@	c #E2DA3A",
"#@	c #E3DD40",
"$@	c #E4DD44",
"%@	c #E5E047",
"&@	c #AEAA38",
"*@	c #A6A237",
"=@	c #A7A338",
"-@	c #E1DB4F",
";@	c #AEA941",
">@	c #918804",
",@	c #8D8F00",
"'@	c #6C6E00",
")@	c #909200",
"!@	c #C3C600",
"~@	c #B2B500",
"{@	c #727400",
"]@	c #E0E300",
"^@	c #DCDF00",
"/@	c #BEC100",
"(@	c #838500",
"_@	c #686A00",
":@	c #AAAD00",
"<@	c #9B9D00",
"[@	c #9C9E00",
"}@	c #585900",
"|@	c #D5CB12",
"1@	c #D9D01E",
"2@	c #DCD424",
"3@	c #E1D82D",
"4@	c #E1D935",
"5@	c #E4DD43",
"6@	c #E5DF47",
"7@	c #E7E14A",
"8@	c #E7E24C",
"9@	c #E9E352",
"0@	c #EAE453",
"a@	c #EAE555",
"b@	c #373612",
"c@	c #989A00",
"d@	c #969800",
"e@	c #DBDE00",
"f@	c #D8DB00",
"g@	c #929400",
"h@	c #D3D600",
"i@	c #9D9F00",
"j@	c #656700",
"k@	c #7C7E00",
"l@	c #B5B800",
"m@	c #9A9C00",
"n@	c #8E9000",
"o@	c #959700",
"p@	c #D2C70F",
"q@	c #D6CD18",
"r@	c #D8D127",
"s@	c #DFD831",
"t@	c #A29D2A",
"u@	c #37350F",
"v@	c #373611",
"w@	c #8D8A2E",
"x@	c #E7E14D",
"y@	c #E8E24E",
"z@	c #E9E350",
"A@	c #E9E453",
"B@	c #EBE555",
"C@	c #ADA93F",
"D@	c #6F7100",
"E@	c #878900",
"F@	c #A4A600",
"G@	c #A9AC00",
"H@	c #CED100",
"I@	c #CCCF00",
"J@	c #B8BB00",
"K@	c #D1D400",
"L@	c #D5D800",
"M@	c #999B00",
"N@	c #7D7F00",
"O@	c #D0D300",
"P@	c #AFB200",
"Q@	c #D9D12A",
"R@	c #DED735",
"S@	c #99952A",
"T@	c #706D25",
"U@	c #E8E250",
"V@	c #E9E351",
"W@	c #EAE353",
"X@	c #E9E454",
"Y@	c #606060",
"Z@	c #979797",
"`@	c #FFFFFF",
" #	c #D5CB1C",
".#	c #D9D22D",
"+#	c #DCD535",
"@#	c #94902B",
"##	c #716E28",
"$#	c #E9E353",
"%#	c #ACA93E",
"&#	c #D2C919",
"*#	c #D8CF27",
"=#	c #9C982E",
"-#	c #726F2A",
";#	c #EBE557",
">#	c #EBE556",
",#	c #E9E354",
"'#	c #D4CF4B",
")#	c #ACA83C",
"!#	c #373510",
"~#	c #575757",
"{#	c #9A962D",
"]#	c #AEA943",
"^#	c #AEAA42",
"/#	c #AEA940",
"(#	c #ADA83F",
"_#	c #ACA83E",
":#	c #636022",
"<#	c #1B1A08",
"[#	c #A8A8A8",
"}#	c #AAA530",
"|#	c #CCC524",
"1#	c #B1AD2F",
"2#	c #C3BC28",
"3#	c #C0B508",
"4#	c #32310E",
"5#	c #34330F",
"6#	c #353410",
"7#	c #373511",
"8#	c #363510",
"9#	c #36350F",
"0#	c #36340E",
"a#	c #33310C",
"b#	c #D3CD36",
"c#	c #D5CF3B",
"d#	c #DDD73F",
"e#	c #E0DB42",
"f#	c #E2DC45",
"g#	c #E3DD45",
"h#	c #E3DC42",
"i#	c #E3DB3F",
"j#	c #DFD635",
"k#	c #D2C92D",
"l#	c #CCC41F",
"m#	c #CEC82D",
"n#	c #D3CC30",
"o#	c #D5CE31",
"p#	c #D9D335",
"q#	c #DFD838",
"r#	c #DFD83D",
"s#	c #E0D83C",
"t#	c #DFD93A",
"u#	c #DED837",
"v#	c #DED533",
"w#	c #DDD32D",
"x#	c #D1C726",
"y#	c #7C7816",
"z#	c #CDC526",
"A#	c #D0C827",
"B#	c #D1CA28",
"C#	c #D4CD2A",
"D#	c #D7D12B",
"E#	c #DBD42E",
"F#	c #DDD430",
"G#	c #DCD42F",
"H#	c #DBD22C",
"I#	c #DAD027",
"J#	c #C6BE1D",
"K#	c #848015",
"L#	c #D2CA21",
"M#	c #D3CB23",
"N#	c #D3CA21",
"O#	c #D5CB21",
"P#	c #D7CD22",
"Q#	c #D8CF24",
"R#	c #D7CE23",
"S#	c #D5CB1A",
"T#	c #D0C615",
"U#	c #A59E15",
"V#	c #D3CA1D",
"W#	c #D3CB1A",
"X#	c #D4C918",
"Y#	c #D3C918",
"Z#	c #D3C919",
"`#	c #D3C817",
" $	c #D1C714",
".$	c #CFC40F",
"+$	c #D4CA15",
"@$	c #D3C813",
"#$	c #D2C811",
"$$	c #D2C711",
"%$	c #D1C60F",
"&$	c #CEC40E",
"*$	c #CDC30B",
"=$	c #CDC20A",
"-$	c #8B8409",
";$	c #D1C60D",
">$	c #D0C50C",
",$	c #DBDBDB",
"'$	c #867E06",
")$	c #848484",
"!$	c #454545",
"~$	c #3F3F3F",
"{$	c #2B2104",
"            . . . . . . . . . . . . . . . . . . . . . . . . . . . . . .             ",
"        . . . . . . . . . . . . . . . . . . . . . . . . . . . . . . . . .           ",
"      . . . . + @ # . . $ % % % % % % & * = - ; > , ' ) ) ! ~ { @ ] . . . .         ",
"    . . . ] @ % % ^ . . / % % % % ( _ : - < [ } | | 1 2 2 3 4 % % %   . . . .       ",
"  . . . ] 5 % % % ^ . . 6 7 7 7 7 8 8 9 9 0 a b b c c c d c c c 7 e f   . . .       ",
". . . ] 5 % % % % ^ . . . . . . . . . . . . . . . . . . . . . . . g h i . . . .     ",
". . ] 5 % % % % % ^ . . . . . . . . . . . . . . . . . . . . . . . j k l m . . . .   ",
". . @ % % % % % % n . . o p p q r s t u . . . . . . v w x y . . . z A B C @ ] . . . ",
". + % % % % % % % D . . E F = G H I J K . . L M . . . N O P . . . Q R S % % @ . . . ",
". @ % % % % % % ( T . . U V W X Y Z `  .. . ..+.@.. . . #.$.. . . %.&.*.=.% -.. . . ",
". % % % % % % ( ;.>.. . ,.- '.).!.~.{.].. . ^./.(._.:.. . . . . . <.[.}.|.1.% + . . ",
". % % % % % % & _ 2.. . 3.4.5.!.6.7.8.9.. . 0.a.a.a.b.. . . . . . c.d.e.f.% % @ . . ",
". % % % % % ( g.h.i.. . j.k.l.m.n.o.p.q.. . . . . . . . . . . . . r.s.t.u.% % % . . ",
". % % % % % ( v.w.x.y.z.A.B.C.D.E.F.G.H.. . . . . . . . . . . . . I.J.K.L.% % % . . ",
". % % % % M.( N.O.V P.Q.h R.S.{.T.U.V.W.. . X.Y.Z.`. +.+++@+. . . #+$+%+&+% % % . . ",
". % % % % *+g.O.=+- '.-+;+d.>+,+'+)+!+~+. . {+]+^+/+G.(+p._+. . . 6.;+:+<+% % % . . ",
". % % % % M.v.=+[+}+l ).|+1+2+. . 3+4+5+. . 6+7+8+9+(+0+_+a+. . . b+c+d+e+% % % . . ",
". @ % % % f+N.g+}+i h+i+S.j+2+. . . . . . . . . . . . . . . . . . k+l+m+n+% % % . . ",
". + % % % * o+p+q+r+s+t+u+v+2+. . . . . . . . . . . . . . . . . . w+x+y+z+% % % . . ",
". . % % % A+B+> C+D+E+F+G+E.H+. . . . . . . . . . . . . . . . . . I+J+K+L+% % % . . ",
". . @ % % M+N+O+P+Q+R+S+%.T+H+. . U+V+W+. . X+Y+Y+Y+Y+Y+Y+Y+Y+Y+Y+Y+Y+Y+Y+Y+Y+Y+. . ",
". . ] % Z+`+f  @.@+@@@#@$@%@&@*@=@-@7+;@. . ..Y+Y+>@,@'@)@!@~@{@]@^@/@(@_@:@<@[@}@. ",
". . .   |@; 1@2@3@4@c.5@6@7@8@9+9@0@a@W.. . b@Y+Y+c@<@d@:@e@f@g@h@f@i@j@k@l@m@n@o@. ",
". . . . p@% q@r@s@t@u@v@w@x@y@z@A@^+B@C@. . b@Y+Y+D@E@F@G@H@I@J@K@L@M@N@<@O@P@M@g@  ",
"  . . . @ % % Q@R@S@. . T@U@V@W@X@a@a@C@. . v@Y+Y+. Y@Z@`@`@`@`@`@`@`@`@`@`@`@`@.   ",
"  . . . ] %  #.#+#@#. . ##$#^+a@4+4+X@%#. . v@Y+Y+. Y@Z@`@`@`@`@`@`@`@`@`@`@`@`@.   ",
"    . . .   &#% *#=#. . -#V+;#>#a@,#'#)#. . !#Y+Y+. Y@Z@`@`@`@`@. . ~#`@`@`@`@`@.   ",
"    . . . . % % % {#. . ^.]#^#/#(#_#)#:#. . <#Y+Y+. Y@Z@`@`@`@`@`@[#. `@`@`@`@`@.   ",
"      . . . @ % % }#. . . . . . . . . . . . . Y+Y+. Y@Z@`@`@`@`@`@`@. `@`@`@`@`@.   ",
"      . . . ] % |#1#. . . . . . . . . . . . . Y+Y+. Y@Z@`@`@`@`@`@`@. `@`@`@`@`@.   ",
"        . . .   2#3#4#5#6#b@....b@7#7#8#9#0#a#Y+Y+. Y@Z@`@`@`@`@`@`@. `@`@`@`@`@.   ",
"        . . . . 5 % % b#c#d#e#f#g#$@h#i#r.j#k#Y+Y+. Y@Z@`@`@`@`@`@`@. `@`@`@`@`@.   ",
"          . . . ] @ l#m#n#o#p#q#r#s#t#u#v#w#x#Y+Y+. Y@Z@`@`@`@`@`@`@. `@`@`@`@`@.   ",
"            . . . . y#z#A#B#C#D#E#F#A G#H#I#J#Y+Y+. Y@Z@`@`@`@`@`@[#. [#`@`@`@`@.   ",
"              . . . . K#L#M#N#O#P#Q#Q#R#d+S#T#Y+Y+. Y@Z@`@`@`@`@. . . . . `@`@`@.   ",
"              . . . . . U#V#W#X#X#Y#Z#`# ${ .$Y+Y+. Y@Z@`@`@`@`@`@`@`@`@`@`@`@`@.   ",
"                . . . . .   +$@$#$$$%$&$* *$=$Y+Y+. Y@Z@`@`@`@`@`@`@`@`@`@`@`@`@.   ",
"                    . . . . . -$;$>$*+% % % % Y+Y+. Y@Z@,$`@`@`@`@`@`@`@`@`@`@`@.   ",
"                      . . . . . . '$% % % % % Y+Y+. Y@)$Z@Z@Z@Z@Z@Z@Z@Z@Z@Z@Z@Z@.   ",
"                        . . . . . . + @ % % % Y+Y+. !$Y@Y@Y@Y@Y@Y@Y@Y@Y@Y@Y@Y@~$.   ",
"                            . . . . . . . . . Y+Y+{$. . . . . . . . . . . . . . .   ",
"                                . . . . . . . Y+Y+Y+Y+Y+Y+Y+Y+Y+Y+Y+Y+Y+Y+Y+Y+Y+    "};
